<!--?xml version="1.0" standalone="no"?-->
              <svg id="sw-js-blob-svg" viewBox="0 0 100 100" xmlns="http://www.w3.org/2000/svg" version="1.1">
                    <defs> 
                        <linearGradient id="sw-gradient" x1="0" x2="1" y1="1" y2="0">
                            <stop id="stop1" stop-color="rgba(248, 117, 55, 1)" offset="0%"></stop>
                            <stop id="stop2" stop-color="rgba(251, 168, 31, 1)" offset="100%"></stop>
                        </linearGradient>
                    </defs>
                <path fill="none" d="M16,-22.1C21.1,-21.7,25.8,-17.8,28.1,-12.8C30.3,-7.8,30.2,-1.7,31,5.7C31.9,13.1,33.6,21.9,30.4,27.3C27.2,32.7,19,34.7,11.9,33.8C4.7,32.9,-1.3,29,-7.5,26.7C-13.7,24.4,-20,23.6,-23.7,20.1C-27.4,16.6,-28.4,10.4,-31.5,3.2C-34.5,-4,-39.7,-12.2,-39.1,-19.6C-38.4,-27,-32,-33.4,-24.6,-32.7C-17.1,-32,-8.5,-24.1,-1.5,-21.7C5.5,-19.3,11,-22.5,16,-22.1Z" width="100%" height="100%" transform="translate(50 50)" stroke-width="1" style="transition: all 0.3s ease 0s;" stroke="url(#sw-gradient)"></path>
              </svg>