<svg id="visual" viewBox="0 0 960 540" preserveAspectRatio="xMinYMin meet" xmlns="http://www.w3.org/2000/svg" xmlns:xlink="http://www.w3.org/1999/xlink" version="1.1">

<path d="M0 33L40 58.3C80 83.7 160 134.3 240 189.3C320 244.3 400 303.7 480 290.2C560 276.7 640 190.3 720 209.2C800 228 880 352 920 414L960 476L960 0L920 0C880 0 800 0 720 0C640 0 560 0 480 0C400 0 320 0 240 0C160 0 80 0 40 0L0 0Z" fill="#ffffff"></path>

<path d="M0 444L40 435.8C80 427.7 160 411.3 240 403.2C320 395 400 395 480 392.3C560 389.7 640 384.3 720 406C800 427.7 880 476.3 920 500.7L960 525L960 474L920 412C880 350 800 226 720 207.2C640 188.3 560 274.7 480 288.2C400 301.7 320 242.3 240 187.3C160 132.3 80 81.7 40 56.3L0 31Z" fill="#f1e6ff"></path>

<path d="M0 541L40 541C80 541 160 541 240 541C320 541 400 541 480 541C560 541 640 541 720 541C800 541 800 541 920 541L960 541L960 523L920 498.7C880 474.3 800 425.7 720 404C640 382.3 560 387.7 480 390.3C400 393 320 393 240 401.2C160 409.3 80 425.7 40 433.8L0 442Z" fill="#e4cdfe"></path>
</svg>